<?xml version="1.0" encoding="UTF-8"?>
<!DOCTYPE svg PUBLIC "-//W3C//DTD SVG 1.1//EN" "http://www.w3.org/Graphics/SVG/1.1/DTD/svg11.dtd">
<svg xmlns="http://www.w3.org/2000/svg" xmlns:xlink="http://www.w3.org/1999/xlink" version="1.1" width="345px" height="201px" viewBox="-0.5 -0.5 345 201"><defs><clipPath id="mx-clip-92-31-152-26-0"><rect x="92" y="31" width="152" height="26"/></clipPath><clipPath id="mx-clip-125-176-93-26-0"><rect x="125" y="176" width="93" height="26"/></clipPath><clipPath id="mx-clip-4-176-93-26-0"><rect x="4" y="176" width="93" height="26"/></clipPath><clipPath id="mx-clip-246-176-93-26-0"><rect x="246" y="176" width="93" height="26"/></clipPath></defs><g><path d="M 88 26 L 88 0 L 248 0 L 248 26" fill="none" stroke="#000000" stroke-miterlimit="10" pointer-events="all"/><path d="M 88 26 L 88 52 L 248 52 L 248 26" fill="none" stroke="#000000" stroke-miterlimit="10" pointer-events="none"/><path d="M 88 26 L 248 26" fill="none" stroke="#000000" stroke-miterlimit="10" pointer-events="none"/><g fill="#000000" font-family="Helvetica" font-weight="bold" pointer-events="none" text-anchor="middle" font-size="12px"><text x="167.5" y="17.5">Person</text></g><g fill="#000000" font-family="Helvetica" pointer-events="none" clip-path="url(#mx-clip-92-31-152-26-0)" font-size="12px"><text x="93.5" y="43.5">+ greet()</text></g><path d="M 121 171 L 121 145 L 222 145 L 222 171" fill="none" stroke="#000000" stroke-miterlimit="10" pointer-events="none"/><path d="M 121 171 L 121 197 L 222 197 L 222 171" fill="none" stroke="#000000" stroke-miterlimit="10" pointer-events="none"/><path d="M 121 171 L 222 171" fill="none" stroke="#000000" stroke-miterlimit="10" pointer-events="none"/><g fill="#000000" font-family="Helvetica" font-weight="bold" pointer-events="none" text-anchor="middle" font-size="12px"><text x="171" y="162.5">German</text></g><g fill="#000000" font-family="Helvetica" pointer-events="none" clip-path="url(#mx-clip-125-176-93-26-0)" font-size="12px"><text x="126.5" y="188.5">+ greet()</text></g><path d="M 171.5 145 L 171.11 108 Q 171 98 171.08 88 L 171.22 70.61" fill="none" stroke="#000000" stroke-miterlimit="10" pointer-events="none"/><path d="M 171.35 53.61 L 179.72 70.68 L 162.72 70.54 Z" fill="none" stroke="#000000" stroke-miterlimit="10" pointer-events="none"/><path d="M 0 171 L 0 145 L 101 145 L 101 171" fill="none" stroke="#000000" stroke-miterlimit="10" pointer-events="none"/><path d="M 0 171 L 0 197 L 101 197 L 101 171" fill="none" stroke="#000000" stroke-miterlimit="10" pointer-events="none"/><path d="M 0 171 L 101 171" fill="none" stroke="#000000" stroke-miterlimit="10" pointer-events="none"/><g fill="#000000" font-family="Helvetica" font-weight="bold" pointer-events="none" text-anchor="middle" font-size="12px"><text x="50" y="162.5">English</text></g><g fill="#000000" font-family="Helvetica" pointer-events="none" clip-path="url(#mx-clip-4-176-93-26-0)" font-size="12px"><text x="5.5" y="188.5">+ greet()</text></g><path d="M 242 171 L 242 145 L 343 145 L 343 171" fill="none" stroke="#000000" stroke-miterlimit="10" pointer-events="none"/><path d="M 242 171 L 242 197 L 343 197 L 343 171" fill="none" stroke="#000000" stroke-miterlimit="10" pointer-events="none"/><path d="M 242 171 L 343 171" fill="none" stroke="#000000" stroke-miterlimit="10" pointer-events="none"/><g fill="#000000" font-family="Helvetica" font-weight="bold" pointer-events="none" text-anchor="middle" font-size="12px"><text x="292" y="162.5">French</text></g><g fill="#000000" font-family="Helvetica" pointer-events="none" clip-path="url(#mx-clip-246-176-93-26-0)" font-size="12px"><text x="247.5" y="188.5">+ greet()</text></g><path d="M 50.5 145 L 108.26 66.59" fill="none" stroke="#000000" stroke-miterlimit="10" pointer-events="none"/><path d="M 118.34 52.9 L 115.1 71.63 L 101.41 61.55 Z" fill="none" stroke="#000000" stroke-miterlimit="10" pointer-events="none"/><path d="M 292.5 145 L 226.88 65.36" fill="none" stroke="#000000" stroke-miterlimit="10" pointer-events="none"/><path d="M 216.07 52.24 L 233.44 59.95 L 220.32 70.76 Z" fill="none" stroke="#000000" stroke-miterlimit="10" pointer-events="none"/></g></svg>